<?xml version="1.0" encoding="UTF-8" standalone="no"?>
<!-- Generator: Adobe Illustrator 16.0.0, SVG Export Plug-In . SVG Version: 6.00 Build 0)  -->
<svg id="Layer_1" xmlns:rdf="http://www.w3.org/1999/02/22-rdf-syntax-ns#" xmlns="http://www.w3.org/2000/svg" enable-background="new 0 0 375.229 120" xml:space="preserve" height="120" viewBox="0 0 120 120" width="120" version="1.1" y="0px" x="0px" xmlns:cc="http://creativecommons.org/ns#" xmlns:dc="http://purl.org/dc/elements/1.1/"><metadata id="metadata6275"><rdf:RDF><cc:Work rdf:about=""><dc:format>image/svg+xml</dc:format><dc:type rdf:resource="http://purl.org/dc/dcmitype/StillImage"/><dc:title/></cc:Work></rdf:RDF></metadata><g id="Layer_2" transform="translate(0.438,-5e-4)"><g id="g6183" fill="#b31b1b"><path id="path6185" d="m45.544 91.675c6.785 5.349 13.469 8.177 13.752 8.293l0.517 0.22 0.519-0.223c0.283-0.124 6.944-2.99 13.708-8.281 9.108-7.127 13.923-15.238 13.923-23.465l-0.008-37.614-56.35 0.004-0.002 36.959c-0.001 8.571 4.818 16.903 13.941 24.107zm12.986-11.53c-0.29-0.101-0.61-0.176-1.01-0.176h-0.064c-1.371 0-2.396 0.096-3.484 0.191-1.074 0.1-2.188 0.201-3.82 0.236-0.749 0.016-1.424 0.01-1.934 0v-17.687h0.233c0.68 0.006 1.514 0 2.557-0.02 0.886-0.023 1.856-0.129 2.981-0.25 0.618-0.067 1.277-0.135 2.015-0.199 1.171-0.129 2.249 0.082 2.249 0.082 0.109 0.025 0.187 0.06 0.277 0.089v17.734zm26.761-11.926c0 15.397-18.909 25.836-24.478 28.572v-14.009c0.105-0.101 0.201-0.201 0.279-0.29 0.277-0.324 0.453-0.52 0.987-0.521 1.287 0.02 2.256 0.084 3.36 0.186 1.056 0.094 2.248 0.205 3.948 0.242 1.677 0.041 2.983-0.032 3.037-0.037l0.948-0.051-0.001-5.231h2.217v-2.792h-2.218l-0.001-5.066h2.219v-2.787h-2.22l-0.002-5.691-0.975-0.023c-0.358-0.01-0.769-0.01-1.255-0.008-0.68-0.008-1.486 0-2.51-0.023-0.797-0.018-1.733-0.117-2.812-0.233-0.628-0.066-1.306-0.137-2.009-0.2-1.514-0.174-2.85 0.101-2.93 0.121-0.023 0.006-0.041 0.014-0.064 0.02v-5.376h24.476l0.004 13.197zm-24.478 12.011v-17.731c0.129-0.062 0.283-0.122 0.494-0.171 0.013-0.004 1.098-0.225 2.299-0.084 0.716 0.062 1.379 0.128 1.998 0.201 1.124 0.115 2.094 0.221 2.977 0.244 0.891 0.02 1.629 0.02 2.252 0.02h0.535l0.002 17.688c-0.509 0.011-1.181 0.021-1.934 0-1.631-0.035-2.743-0.137-3.817-0.232-1.101-0.104-2.087-0.197-3.545-0.194-0.516-0.002-0.919 0.11-1.261 0.259zm-26.542-46.952 51.017-0.006 0.001 19.073h-51.019l0.001-19.067zm-0.002 21.737h24.261v5.323c-0.396-0.07-1.508-0.232-2.728-0.09-0.722 0.066-1.394 0.137-2.022 0.203-1.084 0.117-2.016 0.217-2.82 0.234-1.022 0.022-1.836 0.024-2.509 0.022-0.483 0-0.897 0-1.258 0.008l-0.978 0.023v5.139h-2.395v2.793h2.396v5.14h-2.396v2.783h2.396v5.717l0.943 0.049c0.057 0.006 1.357 0.072 3.041 0.037 1.7-0.037 2.895-0.147 3.949-0.241 1.086-0.099 2.025-0.186 3.307-0.186 0.504-0.006 0.672 0.15 0.943 0.493 0.036 0.046 0.086 0.1 0.131 0.148v14.057c-5.885-2.895-24.263-13.209-24.263-29.102l0.002-12.55z"/><path id="path6187" d="m55.57 35.187h-14.238v0.998c-0.005 3.11-0.008 8.368 0.012 8.609 0.067 1.078 0.781 2.054 2.176 2.983 1.72 1.153 4.282 2.653 4.39 2.718l0.488 0.286 0.492-0.271c0.117-0.064 2.883-1.571 4.609-2.733 2.021-1.347 2.055-2.574 2.068-2.983 0.018-0.222 0.012-4.804 0.003-8.609v-0.998zm-12.236 1.999h10.239c0.001 0.832 0.002 1.725 0.002 2.593h-10.243c0.001-0.869 0.001-1.761 0.002-2.593zm10.234 7.551c-0.014 0.498-0.651 1.024-1.181 1.376-1.229 0.826-3.078 1.876-3.955 2.368-0.835-0.5-2.567-1.542-3.795-2.369-0.801-0.532-1.275-1.061-1.301-1.45-0.004-0.146-0.006-1.333-0.006-2.882h10.246c0 1.559-0.002 2.768-0.008 2.957z"/><path id="path6189" d="m79.8 34.763h-14.557v1c-0.003 3.908-0.003 8.607 0.011 8.85 0.081 1.084 0.808 2.082 2.229 3.027 1.758 1.181 4.383 2.72 4.495 2.786l0.487 0.286 0.495-0.274c0.118-0.06 2.957-1.603 4.731-2.798 2.071-1.381 2.101-2.634 2.107-3.049 0.016-0.221 0.011-4.924 0.002-8.829v-0.999zm-2.001 9.786c-0.012 0.515-0.668 1.06-1.218 1.433-1.27 0.846-3.187 1.929-4.08 2.429-0.852-0.506-2.636-1.583-3.903-2.429-0.39-0.263-1.304-0.935-1.347-1.52-0.002-0.054-0.003-0.24-0.004-0.525l5.045-3.644 5.514 3.675c-0.002 0.306-0.004 0.511-0.007 0.581zm-5.551-6.694-5.007 3.617c-0.002-1.438-0.002-3.172 0.001-4.708h10.557c0.005 1.564 0.011 3.339 0.011 4.803l-5.562-3.712z"/><path id="path6191" d="m63.411 66.46 0.952 0.097c0.647 0.075 1.207 0.129 1.693 0.142l2.944 0.084 0.046-2.008-2.94-0.08c-0.44-0.008-0.943-0.062-1.529-0.125l-0.973-0.098c-0.261-0.029-0.51-0.033-0.737-0.023l0.087 1.996c0.137-0.007 0.29-0.002 0.457 0.015z"/><path id="path6193" d="m66.121 70.242c-0.419-0.014-0.901-0.066-1.45-0.124-0.331-0.038-0.683-0.074-1.041-0.106-0.255-0.027-0.495-0.031-0.72-0.027l0.032 2.002c0.142-0.004 0.302 0 0.487 0.02 0.369 0.034 0.71 0.069 1.029 0.104 0.613 0.065 1.148 0.121 1.616 0.135 0.613 0.008 1.508 0.035 2.174 0.049l0.769 0.021 0.047-1.996-0.767-0.024c-0.663-0.021-1.564-0.046-2.176-0.054z"/><path id="path6195" d="m66.122 75.779c-0.428-0.016-0.914-0.065-1.476-0.129-0.327-0.036-0.668-0.071-1.013-0.104-0.266-0.027-0.51-0.037-0.736-0.027l0.061 1.996c0.137 0 0.29 0 0.472 0.021 0.354 0.033 0.689 0.072 0.999 0.1 0.625 0.071 1.168 0.127 1.644 0.141l0.829 0.021c0.848 0.022 1.79 0.045 2.118 0.053l0.04-2.004c-0.33-0.007-1.269-0.024-2.104-0.051l-0.834-0.017z"/><path id="path6197" d="m53.471 66.674c0.489-0.009 1.047-0.068 1.694-0.142 0.3-0.03 0.618-0.062 0.957-0.101 0.156-0.011 0.314-0.021 0.453-0.016l0.031-2.005c-0.206 0-0.436 0.01-0.67 0.03-0.354 0.031-0.683 0.068-0.988 0.104-0.58 0.058-1.077 0.119-1.522 0.123l-2.94 0.075 0.047 2.005 2.938-0.073z"/><path id="path6199" d="m54.966 70.08c-0.58 0.062-1.084 0.119-1.523 0.13l-2.941 0.077 0.047 2.003 2.939-0.076c0.492-0.013 1.049-0.075 1.695-0.144l0.939-0.098c0.151-0.013 0.3-0.021 0.438-0.014l0.092-2c-0.208-0.011-0.447 0-0.702 0.021l-0.984 0.101z"/><path id="path6201" d="m54.968 75.614c-0.582 0.065-1.084 0.124-1.623 0.132-0.931 0.025-2.405 0.07-2.84 0.082l0.037 1.999c0.438-0.013 1.923-0.052 2.948-0.079 0.487-0.014 1.046-0.074 1.694-0.145l0.973-0.097c0.147-0.018 0.295-0.021 0.432-0.018l0.03-1.998c-0.212-0.007-0.446 0-0.667 0.021l-0.984 0.103z"/><path id="path6203" d="m9.027 60.318c2.502 0 4.035-1.601 4.221-4.381 0.028-0.546-0.013-1.151-0.149-1.895l-0.046-0.245-2.065-0.019 0.193 0.424c0.148 0.331 0.236 1.03 0.202 1.614-0.093 1.447-1.182 2.331-2.714 2.226-1.559-0.099-2.549-1.11-2.466-2.521 0.031-0.458 0.109-0.966 0.489-1.532l0.258-0.4-2.038-0.299-0.095 0.204c-0.259 0.551-0.435 1.254-0.472 1.875-0.179 2.908 1.425 4.755 4.298 4.935 0.129 0.01 0.258 0.014 0.384 0.014z"/><path id="path6205" d="m9.354 50.499c0.554 0.154 1.094 0.235 1.603 0.235 1.899 0 3.305-1.109 3.856-3.042 0.328-1.155 0.235-2.249-0.271-3.152-0.552-1.002-1.557-1.719-2.894-2.097-0.534-0.153-1.054-0.228-1.544-0.228-1.912 0-3.322 1.108-3.868 3.039-0.71 2.484 0.488 4.492 3.118 5.245zm-1.322-4.737c0.302-1.079 1.218-1.305 1.935-1.305 0.338 0 0.706 0.055 1.066 0.156 0.875 0.251 1.557 0.708 1.865 1.258 0.216 0.388 0.255 0.825 0.121 1.31-0.31 1.081-1.209 1.307-1.913 1.307-0.356 0-0.737-0.058-1.138-0.17-1.136-0.325-2.327-1.187-1.936-2.556z"/><path id="path6207" d="m17.973 39.271-2.947-1.576 0.095-0.182c0.276-0.528 0.491-0.482 0.946-0.427l2.875 0.367 1.135-2.144-3.821-0.398c-0.254-0.02-0.533-0.011-0.747 0.041 0.032-0.814-0.391-1.579-1.164-1.99-0.433-0.229-0.849-0.345-1.237-0.345-1.396 0-2.138 1.408-2.794 2.652l-1 1.876 7.628 4.064 1.031-1.938zm-4.491-2.645-0.11 0.195-1.383-0.74 0.104-0.194c0.349-0.644 0.723-1.177 1.314-0.865 0.21 0.114 0.333 0.246 0.385 0.409 0.108 0.35-0.13 0.848-0.31 1.195z"/><polygon id="polygon6209" points="24.379 29.769 25.928 27.903 19.277 22.383 17.924 24.022 21.843 27.274 16.291 25.99 14.732 27.871 21.384 33.384 22.739 31.753 18.819 28.504"/><polygon id="polygon6211" points="32.352 22.412 31.175 20.961 28.762 22.925 27.714 21.636 29.916 19.851 28.728 18.403 26.536 20.189 25.667 19.116 28.06 17.169 26.881 15.719 22.79 19.053 28.241 25.756"/><polygon id="polygon6213" points="39.526 18.129 38.603 16.495 35.927 18.002 32.605 12.101 30.691 13.183 34.925 20.708"/><polygon id="polygon6215" points="46.781 15.35 46.14 13.594 43.25 14.641 40.945 8.276 38.883 9.024 41.82 17.144"/><path id="path6217" d="m55.479 13.919c0.172 0 0.35-0.01 0.528-0.027 1.196-0.102 2.074-0.476 2.618-1.114 0.512-0.611 0.727-1.457 0.637-2.509l-0.447-5.422-2.185 0.178 0.408 4.932c0.145 1.741-0.554 2.021-1.177 2.08-0.056 0-0.109 0.006-0.159 0.006-0.512 0-1.213-0.193-1.352-1.863l-0.404-4.93-2.182 0.181 0.447 5.423c0.167 2.003 1.292 3.065 3.268 3.065z"/><polygon id="polygon6219" points="69.643 14.482 70.804 5.917 68.701 5.633 68.02 10.684 66.155 5.29 63.746 4.963 62.589 13.531 64.69 13.814 65.371 8.761 67.238 14.157"/><polygon id="polygon6221" points="77.29 7.768 75.202 7.106 72.612 15.356 74.703 16.009"/><polygon id="polygon6223" points="79.532 17.97 81.659 19.041 88.122 12.622 86.147 11.628 81.979 15.871 82.904 9.995 80.815 8.93"/><polygon id="polygon6225" points="90.284 24.976 91.437 23.51 88.979 21.591 90.004 20.279 92.229 22.026 93.38 20.555 91.149 18.808 92.001 17.722 94.435 19.622 95.589 18.158 91.43 14.901 86.108 21.709"/><path id="path6227" d="m93.86 28.601 2.509-2.201 0.14 0.162c0.322 0.368 0.332 0.524 0.066 1.037l-1.358 2.558 1.602 1.822 1.728-3.444c0.06-0.125 0.184-0.393 0.224-0.702 0.74 0.325 1.631 0.177 2.274-0.385 1.859-1.636 0.372-3.333-0.713-4.571l-1.42-1.618-6.5 5.701 1.448 1.641zm5.087-4.463 0.148 0.17c0.309 0.357 0.628 0.759 0.6 1.091-0.004 0.152-0.089 0.294-0.255 0.44-0.161 0.14-0.317 0.212-0.478 0.212-0.368 0-0.752-0.38-1.044-0.711l-0.146-0.168 1.175-1.034z"/><path id="path6229" d="m101.91 35.515c-0.425 0.25-0.955-0.174-1.197-0.58-0.269-0.459-0.424-1.034-0.442-1.655l-0.018-0.452-1.977 0.913 0.14 0.442c0.195 0.668 0.316 1.072 0.734 1.78 0.703 1.19 1.639 1.846 2.63 1.846 0.462 0 0.928-0.138 1.39-0.417 1.53-0.903 1.289-2.34 1.116-3.389-0.121-0.742-0.18-1.202 0.129-1.385 0.154-0.087 0.297-0.13 0.434-0.13 0.396 0 0.658 0.375 0.756 0.534 0.25 0.425 0.414 0.93 0.484 1.45l0.053 0.401 1.799-0.814-0.049-0.237c-0.127-0.612-0.373-1.224-0.752-1.87-0.941-1.583-2.487-2.095-3.932-1.24-1.479 0.872-1.266 2.277-1.105 3.298 0.131 0.812 0.185 1.284-0.193 1.505z"/><rect id="rect6231" transform="matrix(.9259 -.3778 .3778 .9259 -7.4832 43.25)" height="2.193" width="8.642" y="39.601" x="102.17"/><polygon id="polygon6233" points="112.01 50.516 113.82 50.07 112.2 43.527 110.39 43.97 110.94 46.179 104.36 47.793 104.88 49.928 111.46 48.305"/><polygon id="polygon6235" points="114.79 61.422 114.67 59.043 111.51 57.479 114.47 55.62 114.33 53.05 109.27 56.463 105.88 56.65 106 58.84 109.39 58.649"/><polygon id="polygon6237" points="11.751 73.309 13.072 72.925 13.867 75.666 15.661 75.143 14.26 70.285 5.949 72.682 6.569 74.799 9.958 73.816 10.71 76.432 12.501 75.912"/><path id="path6239" d="m18.407 83.596c0.337-0.998 0.23-2.105-0.318-3.207-0.763-1.561-2.031-2.416-3.552-2.416-0.732 0-1.503 0.195-2.287 0.58-1.263 0.621-2.121 1.508-2.479 2.565-0.341 0.987-0.226 2.098 0.32 3.202 0.761 1.548 2.033 2.397 3.589 2.397 0.742 0 1.517-0.196 2.293-0.577 1.229-0.605 2.069-1.482 2.434-2.544zm-3.437 0.502c-0.549 0.271-1.093 0.413-1.576 0.413-0.75 0-1.294-0.343-1.629-1.015-0.224-0.459-0.266-0.905-0.12-1.33 0.203-0.596 0.789-1.166 1.61-1.568 0.509-0.248 1.035-0.385 1.512-0.385 0.768 0 1.326 0.337 1.646 1.002 0.223 0.453 0.259 0.9 0.112 1.335-0.207 0.598-0.774 1.171-1.555 1.548z"/><path id="path6241" d="m24.362 90.289-3.87 3.08c-1.042 0.834-1.789 0.908-2.389 0.152-0.247-0.312-0.349-0.608-0.311-0.908 0.051-0.43 0.39-0.891 1.012-1.387l3.865-3.074-1.376-1.726-4.257 3.38c-0.885 0.703-1.358 1.494-1.395 2.352-0.04 0.793 0.3 1.646 1.007 2.527 0.837 1.058 1.737 1.588 2.682 1.588 0.7 0 1.421-0.291 2.149-0.869l4.261-3.385-1.378-1.73z"/><polygon id="polygon6243" points="29.711 95.68 27.802 94.125 22.324 100.81 23.985 102.16 27.218 98.209 26.002 103.81 27.888 105.36 33.365 98.674 31.711 97.322 28.481 101.27"/><path id="path6245" d="m38.093 101.41-2.226-1.12-3.886 7.727 2.226 1.112c1.071 0.54 2.007 0.8 2.863 0.8 1.496 0 2.669-0.818 3.486-2.44 1.287-2.562 0.462-4.606-2.463-6.079zm0.427 5.049c-0.447 0.896-1.221 1.401-2.125 1.401-0.369 0-0.735-0.09-1.065-0.258l-0.535-0.262 2.207-4.394 0.531 0.27c0.555 0.279 0.984 0.767 1.174 1.345 0.196 0.602 0.132 1.258-0.187 1.898z"/><polygon id="polygon6247" points="42.862 112.81 48.033 114.19 48.515 112.39 45.474 111.58 45.897 109.98 48.66 110.71 49.146 108.91 46.382 108.17 46.733 106.84 49.749 107.64 50.237 105.84 45.085 104.46"/><path id="path6249" d="m55.61 106.51-2.495-0.144-0.483 8.632 2.484 0.143c0.191 0.012 0.381 0.016 0.568 0.016 2.896 0 4.445-1.363 4.599-4.051 0.071-1.334-0.229-2.391-0.909-3.151-0.781-0.873-2.015-1.348-3.764-1.445zm-0.077 6.781-0.595-0.029 0.283-4.898 0.586 0.031c1.163 0.062 2.293 0.974 2.205 2.573-0.097 1.667-1.353 2.386-2.479 2.323z"/><path id="path6251" d="m67.892 105.86-1.469 9.148 2.262-0.488 0.298-1.938 2.774-0.607 1.056 1.668 2.369-0.518-5.116-7.729-2.174 0.464zm1.36 4.75 0.276-2.256 1.18 1.943-1.456 0.313z"/><polygon id="polygon6253" points="76.104 110.32 76.853 112.4 78.932 111.65 78.175 109.57"/><path id="path6255" d="m80.313 101.58-2.194 1.183 4.124 7.603 2.188-1.188c2.873-1.552 3.638-3.622 2.272-6.144-1.351-2.505-3.519-3.016-6.39-1.454zm3.502 5.809-0.52 0.282-2.34-4.31 0.524-0.283c0.346-0.19 0.737-0.297 1.132-0.297 0.871 0 1.636 0.492 2.093 1.33 0.763 1.414 0.131 2.721-0.889 3.278z"/><polygon id="polygon6257" points="88.35 104.3 89.619 106.12 91.435 104.86 90.172 103.04"/><polygon id="polygon6259" points="99.171 98.104 93.102 91.948 91.802 93.236 91.418 96.628 93.316 96.887 93.473 95.475 97.597 99.657"/><path id="path6261" d="m103.51 88.711c-0.722-0.529-1.529-0.617-2.427-0.271 0.014-0.849-0.427-1.578-0.954-1.971-1.076-0.789-2.514-0.345-3.567 1.079-1.044 1.41-0.949 2.839 0.251 3.732 0.597 0.442 1.377 0.543 2.125 0.274-0.054 0.942 0.25 1.648 0.918 2.139 0.485 0.359 0.989 0.541 1.508 0.541 0.867 0 1.733-0.532 2.454-1.494 0.603-0.823 0.869-1.649 0.756-2.393-0.099-0.636-0.454-1.18-1.064-1.636zm-4.11 0.631c-0.309 0.194-0.63 0.36-0.914 0.36-0.137 0-0.255-0.035-0.362-0.113-0.425-0.317-0.214-0.842-0.022-1.096 0.144-0.201 0.324-0.3 0.525-0.3 0.144 0 0.305 0.058 0.458 0.168 0.26 0.2 0.374 0.649 0.315 0.981zm2.967 2.33c-0.293 0.396-0.844 0.512-1.219 0.235-0.343-0.257-0.454-0.605-0.362-1.196 0.621-0.404 1.074-0.472 1.463-0.181 0.182 0.133 0.282 0.3 0.314 0.491 0.031 0.208-0.04 0.439-0.196 0.651z"/><path id="path6263" d="m107.43 80.26c-1.498-0.748-2.922-0.302-3.642 1.137-0.203 0.406-0.286 0.799-0.247 1.188-0.536-0.441-1.022-1.127-0.602-1.975 0.214-0.43 0.496-0.715 0.841-1.017l0.291-0.25-1.589-1.141-0.18 0.176c-0.441 0.431-0.79 0.911-1.063 1.459-0.426 0.86-0.509 1.692-0.238 2.496 0.464 1.397 1.889 2.353 2.994 2.899 0.964 0.486 1.788 0.724 2.509 0.724 1.096 0 1.92-0.546 2.461-1.62 0.834-1.676 0.273-3.161-1.535-4.076zm-0.08 3.271c-0.135 0.283-0.354 0.422-0.662 0.422-0.209 0-0.453-0.064-0.705-0.195-0.426-0.21-0.713-0.475-0.799-0.742-0.053-0.16-0.035-0.317 0.049-0.496 0.131-0.258 0.34-0.384 0.65-0.384 0.234 0 0.506 0.072 0.787 0.214 0.369 0.187 0.637 0.443 0.723 0.709 0.054 0.158 0.037 0.314-0.043 0.472z"/><path id="path6265" d="m110.49 71.536c-1.727-0.519-3.119 0.261-3.607 1.926-0.049 0.153-0.084 0.296-0.102 0.42l-1.014-0.321 0.881-2.974-1.725-0.508-1.48 4.987 4.791 1.524-0.002-0.419c-0.004-0.465 0.057-0.902 0.189-1.352 0.123-0.411 0.564-1.432 1.49-1.158 0.982 0.298 0.756 1.354 0.666 1.673-0.174 0.585-0.518 1.005-0.803 1.353l-0.275 0.338 2.016 0.664 0.123-0.217c0.33-0.584 0.623-1.259 0.779-1.793 0.303-1.012 0.262-1.941-0.113-2.689-0.355-0.699-0.995-1.213-1.814-1.454z"/><path id="path6267" d="m16.015 59.997c0 24.021 19.532 43.558 43.547 43.558 24.016 0 43.55-19.537 43.55-43.558 0-24.012-19.534-43.548-43.55-43.548-24.015 0-43.547 19.536-43.547 43.548zm43.547-42.039c23.183 0 42.045 18.863 42.045 42.04 0 23.184-18.862 42.045-42.045 42.045-23.185 0-42.042-18.861-42.042-42.045-0.001-23.177 18.857-42.04 42.042-42.04z"/><path id="path6269" d="m59.562 0.438c-32.844 0-59.562 26.718-59.562 59.565 0 32.836 26.718 59.56 59.562 59.56 32.846 0 59.562-26.724 59.562-59.56 0-32.847-26.717-59.565-59.562-59.565zm0 117.57c-31.985 0-58.005-26.02-58.005-58.006 0-31.984 26.02-58.008 58.005-58.008 31.986 0 58.008 26.024 58.008 58.008-0.001 31.986-26.022 58.006-58.008 58.006z"/></g></g></svg>
