<?xml version="1.0" encoding="UTF-8" standalone="no"?>
<!-- Created with Inkscape (http://www.inkscape.org/) -->

<svg
   xmlns:dc="http://purl.org/dc/elements/1.1/"
   xmlns:cc="http://creativecommons.org/ns#"
   xmlns:rdf="http://www.w3.org/1999/02/22-rdf-syntax-ns#"
   xmlns:svg="http://www.w3.org/2000/svg"
   xmlns="http://www.w3.org/2000/svg"
   xmlns:sodipodi="http://sodipodi.sourceforge.net/DTD/sodipodi-0.dtd"
   xmlns:inkscape="http://www.inkscape.org/namespaces/inkscape"
   id="svg3355"
   version="1.1"
   inkscape:version="0.91 r13725"
   xml:space="preserve"
   width="326.98749"
   height="107.475"
   viewBox="0 0 326.98749 107.475"
   sodipodi:docname="PS_HOR_RGB_2C.svg"><metadata
     id="metadata3361"><rdf:RDF><cc:Work
         rdf:about=""><dc:format>image/svg+xml</dc:format><dc:type
           rdf:resource="http://purl.org/dc/dcmitype/StillImage" /><dc:title></dc:title></cc:Work></rdf:RDF></metadata><defs
     id="defs3359" /><sodipodi:namedview
     pagecolor="#ffffff"
     bordercolor="#666666"
     borderopacity="1"
     objecttolerance="10"
     gridtolerance="10"
     guidetolerance="10"
     inkscape:pageopacity="0"
     inkscape:pageshadow="2"
     inkscape:window-width="640"
     inkscape:window-height="480"
     id="namedview3357"
     showgrid="false"
     inkscape:zoom="0.72174015"
     inkscape:cx="163.49374"
     inkscape:cy="53.737499"
     inkscape:window-x="0"
     inkscape:window-y="0"
     inkscape:window-maximized="0"
     inkscape:current-layer="g3363" /><g
     id="g3363"
     inkscape:groupmode="layer"
     inkscape:label="ink_ext_XXXXXX"
     transform="matrix(1.25,0,0,-1.25,0,107.475)"><g
       id="g3365"
       transform="scale(0.1,0.1)"><path
         d="M 389.625,0 C 217.305,102.477 0,251.406 0,514.387 l 0,277.679 c 79.4883,30.063 202.301,67.7 389.613,67.7 189.465,0 319.5,-40.969 389.625,-67.7 l 0,-277.679 C 779.238,249.184 553.516,96.3633 389.625,0"
         style="fill:#ffffff;fill-opacity:1;fill-rule:nonzero;stroke:none"
         id="path3367"
         inkscape:connector-curvature="0" /><path
         d="M 246.191,131.441 C 292.188,95.543 341.445,63.7852 389.645,34.9883 l 0,0 c 0.437,43.332 -0.957,68.8707 28.375,99.5507 11.875,12.422 24.101,25.063 35.156,36.52 8.324,8.625 15.066,15.054 19,15.054 2.812,0 4.066,-1.476 4.066,-5.238 0,-3.867 1.723,-18.078 10.539,-35.086 10.953,-21.137 27.149,-23.863 32.332,-25.055 125.567,94.52 230.582,218.246 230.582,394.266 0,96.641 0,256.527 0,256.527 -30.961,10.528 -158.183,59.317 -360.086,59.317 -201.898,0 -329.1129,-48.789 -360.0777,-59.317 0,0 0,-159.886 0,-256.527 0,-77.367 20.2968,-144.629 53.707,-203.75 3.3359,35.637 27.4377,52.527 27.4377,87.543 0,24.43 -6.918,39.855 -6.918,60.305 0,36.98 49.93,113.058 75.82,144.058 0.758,0.907 2.445,3.074 4.524,3.074 1.859,0 3.265,-1.292 4.398,-3.031 2.637,-4.043 3.773,-6.172 6.59,-6.172 2.844,0 3.937,1.586 3.937,4.102 0,6.449 -7.449,17.191 -7.449,59.223 0,29.39 6.828,35.621 25.102,53.507 3.34,3.27 13.558,13.094 23.312,13.094 10.848,0 16.223,-6.422 22.903,-13.215 11.3,-11.488 27.05,-31.836 29.593,-35.054 0.715,-0.907 1.36,-1.735 2.903,-1.735 5.222,0 9.586,1.574 32.265,1.574 41.219,0 103.336,-6.476 135.258,-16.925 16.441,-5.379 19.867,-9.086 24.223,-9.086 2.129,0 2.312,1.39 2.312,2.504 0,2.078 -4.328,5.418 -4.328,8.25 0,1.875 1.524,3.257 3.035,4.066 23.805,12.785 44.137,22.453 62.735,22.453 10.828,0 16.175,-9.375 20.73,-18.648 3.555,-7.227 7.371,-16.934 7.371,-26.895 0,-25.211 -9.633,-40.582 -17.308,-51.355 3.675,-3.778 8.882,-9.489 12.054,-13.282 5.653,-6.746 12.438,-15.554 12.438,-24.71 0,-3.954 -1.93,-10.165 -3.031,-15.09 -0.493,-2.207 -2.43,-6.629 -6.274,-6.555 -3.461,0.066 -4.359,3.852 -4.496,7.195 -0.027,0.696 0,2.211 0,2.539 0,7.262 -2.008,17.11 -8.746,24 -7.754,7.926 -14.852,13.684 -23.828,13.684 -0.528,0 -2.438,0.004 -3.071,0.004 -14.73,0 -21.433,-6.442 -25.476,-10.383 -4.422,-4.309 -7.859,-10.07 -7.859,-17.832 0,-4.445 3.027,-9.719 7.058,-17.781 2.383,-4.762 8.492,-16.11 11.828,-21.946 2.907,-5.089 6.641,-6.875 10.821,-6.875 10.253,0 19.199,1.422 19.199,4.504 0,0.84 -0.457,1.555 -1.856,1.555 -0.59,0 -2.011,-0.176 -3.273,-0.176 -13.406,0 -20.574,17.055 -27.293,32.532 5.125,4.988 10.922,10.113 21.437,10.113 13.348,0 22.11,-8.969 22.11,-20.629 0,-5.797 -1.785,-10.633 -2.832,-12.809 -0.528,-1.097 -0.817,-1.777 -0.817,-2.41 0,-1.816 2.313,-2.187 5.957,-3.031 1.293,-0.297 3.774,-0.883 5.282,-1.32 3.929,-1.141 8.097,-4.528 9.859,-9.258 1.176,-3.149 3.852,-10.367 4.438,-12.117 2.207,-6.606 5.773,-16.207 5.773,-27.743 0,-11.722 -0.801,-15.269 -4.023,-27.179 -4.122,-15.223 -5.934,-21.012 -6.61,-29.367 1.414,-2.633 1.539,-3.36 2.18,-4.887 2.301,-4.844 5.301,-13.695 5.301,-23.274 0,-2.562 0,-7.601 0,-7.886 0,-15.266 -6.09,-27.141 -12.684,-36.039 -5.133,-6.926 -12.484,-16.688 -16.695,-22.098 -2.739,-3.277 -6.422,-5.645 -10.532,-5.645 -1.96,0 -4.273,0.657 -6.585,1.239 -2.563,0.64 -8.028,2.027 -10.356,2.613 -8.973,2.266 -12.289,8.129 -15.191,16.023 -0.438,1.18 -1.793,4.536 -2.211,5.606 -2.145,5.5 -3.356,9.016 -6.766,9.016 -2.547,0 -4.98,-1.661 -7.516,-5.473 -8.968,-13.488 -13.839,-18.387 -29.613,-22.27 -5.519,-1.359 -16.711,-3.691 -22.972,-5.082 -9.454,-2.101 -26.329,-6.527 -35.833,-6.527 -2.019,0 -4.144,0.125 -6.32,0.367 -12.957,1.82 -22.152,2.68 -38.293,21.942 -22.191,26.484 -19.902,30.218 -21.234,65.984 -0.149,3.992 -1.457,8.973 -5.602,8.973 -3.726,0 -5.332,-7.59 -6.691,-18.34 -1.594,-12.617 -4.5,-25.731 -10.707,-25.731 -4.344,0 -7.262,0.668 -13.942,2.844 -8.066,2.625 -28.16,9.414 -38.726,12.906 -14.379,4.754 -28.16,8.524 -33.703,21.274 -2.61,6 -7.43,17.16 -9.879,22.961 -1.723,4.078 -2.981,6.211 -5.664,6.211 -3.828,0 -4.676,-4.543 -5.106,-8.129 -0.484,-4.063 -1.511,-13.43 -2.015,-19.27 -2.16,-24.918 -7.145,-35.519 -17.688,-49.418 -4.832,-6.363 -9.43,-12.851 -14.773,-19.941 -11.051,-14.653 -17.711,-29.649 -17.36,-58.039 0.024,-1.844 -0.113,-12.418 0,-17.293 0.989,-42.25 11.703,-62.957 82.914,-119.696 z m 255.067,129.461 c -3.34,-0.824 -9.891,-2.441 -39.067,-2.441 -44.207,0 -51.703,10.855 -51.703,19.477 0,14.382 63.391,24.531 88.375,24.531 23.926,0 34.5,-7.692 34.5,-13.547 0,-6.785 -10.789,-22.875 -32.105,-28.02 z M 415.668,534 c 0,10.18 -11.461,25.098 -31.438,25.098 -17.769,0 -31.343,-13.407 -34.89,-23.887 4.258,-8.238 8.359,-16.938 25.398,-22.098 2.254,-0.683 4.512,-0.746 4.512,-2.664 0,-2.73 -2.883,-4.097 -8.949,-4.097 -19.313,0 -30.789,7.886 -35.887,14.554 -4.992,-0.695 -10.777,-2.636 -17.996,-2.898 -5.902,-0.211 -8.602,3.73 -8.602,9.004 0,3.402 1.012,7.14 3.032,11.297 1.117,2.293 2.304,4.675 3.168,6.367 3.004,5.867 7.586,18.937 25.211,28.984 2.05,1.168 7.382,4.395 10.113,6 9.976,5.863 17.519,7.25 29.387,7.25 0.91,0 7.507,0 8.699,0 14.222,0 21.5,-4 27.769,-9.273 12.739,-10.719 19.75,-16.551 19.75,-24.504 0,-8.84 -0.472,-15.606 -7.535,-24.922 -6.066,-7.953 -14.941,-13.238 -20.676,-13.238 -1.621,0 -2.093,0.875 -2.093,1.785 0,1.211 1.343,1.812 2.726,2.937 4.696,3.809 6.817,10.555 8.301,14.305 z m -177.895,56.992 c 4.391,0 7.723,2.903 14.344,10.219 14.809,16.371 29.11,18.562 29.11,25.555 0,3.117 -2,6.168 -4.082,9.425 -15.782,24.661 -22.52,37.985 -31.922,55.879 -3.407,6.481 -7.844,10.918 -11.227,10.918 -5.461,0 -11.223,-6.367 -14.558,-11.828 -4.704,-7.699 -9.403,-16.379 -9.403,-24.265 0,-11.93 2.934,-33.684 7.887,-47.622 5.351,-15.054 13.121,-28.281 19.851,-28.281 z m 286.25,32.426 c -0.71,0.406 -3.23,1.32 -3.23,3.82 0,2.883 2.09,5.867 6.324,11.543 9.758,13.082 23.168,29.121 28.074,29.121 2.403,0 3.895,-1.644 6.856,-7.257 1.762,-3.332 3.269,-8.891 3.269,-14.172 0,-17.399 -5.996,-29.614 -15.289,-43.422 -4.629,4.445 -13.246,13.058 -26.004,20.367 z M 506.84,359.598 c 0,5.894 4.848,15.047 4.848,23.218 0,9.727 -11.922,12.817 -21.176,14.098 -19.481,2.699 -25.977,1.816 -25.977,6.117 0,2.973 2.621,6.071 6.168,11.172 5.238,7.527 17.711,10.371 24.356,11.285 8.75,1.203 18.437,2.375 30.054,2.375 13.004,0 24.055,-1.945 29.137,-2.832 11.938,-2.074 13.797,-7.07 13.797,-12.672 0,-1.199 0,-4.195 0,-5.601 0,-5.649 -4.621,-8.547 -12.953,-10.367 -2.082,-0.453 -5.004,-0.981 -6.406,-1.27 -6.04,-1.254 -13.512,-2.453 -16.165,-10.078 -5.699,-16.375 -15.593,-29.211 -22.921,-28.887 -1.348,0.063 -2.762,1.082 -2.762,3.442"
         style="fill:#263e7e;fill-opacity:1;fill-rule:nonzero;stroke:none"
         id="path3369"
         inkscape:connector-curvature="0" /><path
         d="m 470.293,143.422 c 1.02,11.183 5.949,29.844 5.949,37.453 l 0,0 c 0,3.762 -1.254,5.238 -4.066,5.238 -3.934,0 -10.676,-6.429 -19,-15.054 -11.055,-11.457 -23.281,-24.098 -35.156,-36.52 -29.332,-30.68 -27.938,-56.2187 -28.375,-99.5507 l 0,0 c 32.601,19.6523 62.41,38.543 84.484,53.5976 -3.274,18.0511 -6.012,31.0001 -3.836,54.8361 z M 163.277,251.137 c -0.113,4.879 0.024,15.449 0,17.293 -0.351,28.39 6.309,43.386 17.36,58.039 5.343,7.09 9.941,13.578 14.773,19.941 10.543,13.899 15.528,24.5 17.688,49.418 0.504,5.84 1.531,15.207 2.015,19.27 0.43,3.586 1.278,8.129 5.106,8.129 2.683,0 3.941,-2.133 5.664,-6.211 2.449,-5.801 7.269,-16.961 9.879,-22.961 5.543,-12.75 19.324,-16.52 33.703,-21.274 10.566,-3.492 30.66,-10.281 38.726,-12.906 6.68,-2.176 9.598,-2.844 13.942,-2.844 6.207,0 9.113,13.114 10.707,25.731 1.359,10.75 2.965,18.34 6.691,18.34 4.145,0 5.453,-4.981 5.602,-8.973 1.332,-35.766 -0.957,-39.5 21.234,-65.984 16.141,-19.262 25.336,-20.122 38.293,-21.942 -4.808,1.438 -10.992,7 -10.992,18.707 0,2.145 0,11.445 0,12.86 0,6.425 0.77,12.972 3.953,20.371 1.5,3.484 3.258,9.773 4.91,13.621 2.824,6.554 1.477,8.215 1.477,12.836 0,4.882 -1.61,9.718 -5.469,21.422 -1.98,6.007 -4.664,14.753 -7.238,21.937 -8.043,22.438 -11.293,27.723 -38.125,31.277 -8.613,1.141 -46.262,6.481 -54.133,7.594 -30.113,4.274 -53.691,5.703 -65.965,25.883 -14.656,24.094 -13.18,53.473 -27.273,53.473 -6.688,0 -10.231,-7.485 -10.231,-18.399 0,-11.461 4.328,-30.008 4.328,-62.281 0,-27.906 -2.605,-35.684 -18.867,-56.231 -4.219,-5.332 -9.894,-13.171 -13.531,-17.738 -12.102,-15.187 -17.461,-23.75 -16.727,-41.449 1.903,-45.82 9.161,-79.484 12.5,-96.949 z m 323.231,194.011 c 1.18,-2.945 2.168,-6.296 2.168,-8.793 0,-5.625 -1.399,-7.343 -4.492,-10.66 -1.848,-1.652 -3.911,-3.39 -5.793,-5.148 -3.082,-1.609 -5.836,-3.684 -7.688,-6.344 -3.547,-5.101 -6.168,-8.199 -6.168,-11.172 0,-0.929 0.301,-1.613 0.973,-2.148 -4.305,3.183 -6.024,8.105 -6.024,12.492 0,3.922 1.282,5.992 1.282,9.684 0,3.125 -0.879,6.183 -1.407,7.957 -6.007,20.097 -16.125,44.011 -22.355,60.265 -6.356,16.574 -11.348,25.657 -18.527,25.657 -3.989,0 -7.539,-1.961 -11.735,-1.965 5.735,0.004 14.606,5.289 20.668,13.238 7.063,9.316 7.535,16.082 7.535,24.922 0,3.746 -1.554,7.019 -4.531,10.555 9.098,-9.266 14.914,-21.063 21.078,-34.125 13.5,-28.622 25.196,-59.961 35.016,-84.415 z m 94.367,59.778 0,0 c 1.176,-3.149 3.852,-10.367 4.438,-12.117 2.207,-6.606 5.773,-16.207 5.773,-27.743 0,-11.722 -0.801,-15.269 -4.023,-27.179 -4.122,-15.223 -5.934,-21.012 -6.61,-29.367 -1.148,2.363 -22.812,39.746 -24.465,42.785 -1.656,3.039 -3.039,5.996 -3.039,9.511 0,3.817 1.637,6.114 6.258,9.024 2.773,1.742 6.367,3.801 8.793,5.047 11.156,5.715 13.828,12.777 13.84,20.328 0.004,3.172 -0.461,6.43 -0.965,9.711"
         style="fill:#9dc0e8;fill-opacity:1;fill-rule:nonzero;stroke:none"
         id="path3371"
         inkscape:connector-curvature="0" /><path
         d="m 1914.38,638.16 c -3.63,1.281 -17.59,5.797 -30.37,5.797 -27.76,0 -38.86,-15.066 -38.86,-28.363 0,-17.383 12.91,-25.426 27.81,-29.176 l 23.68,-6.203 c 33.35,-8.863 70.27,-23.027 70.27,-72.453 0,-45.336 -29.15,-75.828 -93.59,-75.828 -24.93,0 -50.84,2.726 -81.28,13.293 l 0,63.058 42.83,0 0,-30.781 c 6.81,-1.875 26.25,-6.711 42.66,-6.711 25.3,0 37.57,10.555 37.57,28.621 0,14.945 -8.45,25.758 -38.89,33.938 l -20.37,5.613 c -46.64,12.613 -62.5,35.043 -62.5,71.859 0,37.836 25.26,67.899 89.37,67.899 27.53,0 55.05,-4.774 74.49,-12.614 l 0,-56.921 -42.82,0 0,28.972 z m 308.74,-126.465 c -38.86,0 -51.13,-8.179 -51.13,-23.519 0,-10.567 7.5,-21.477 26.25,-21.477 19.09,0 38.17,14.977 38.17,44.996 l -13.29,0 z m 13.98,37.84 c 0,24.621 -11.97,34.086 -36.05,34.086 -15.38,0 -26.42,-3.984 -29.58,-5.109 l 0,-23.864 -38.68,0 0,45.336 c 6.38,3.621 35.01,18.407 67.66,18.407 49.66,0 81.62,-20.2 81.62,-70.149 0,-29.308 0,-77.449 0,-77.449 l 18.43,0 0,-34.77 -57.73,0 -1.39,24.27 -0.69,0 c -3.54,-4.973 -16.55,-28.359 -56.77,-28.359 -40.22,0 -59.65,23.859 -59.65,51.816 0,33.906 26.02,57.242 91.41,57.242 2.83,0 18.43,0 21.42,0 l 0,8.543 z m -226.61,102.942 47.72,0 0,-38.176 47.72,0 0,-34.77 -47.72,0 0,-79.422 c 0,-23.906 8.36,-31.363 28.14,-31.363 7.4,0 17.53,1.981 21.25,2.723 l 0,-33.864 c -3.92,-1.175 -21.25,-5.671 -39.27,-5.671 -35.11,0 -57.84,18.875 -57.84,50.238 l 0,97.359 -24.2,0 0,34.77 24.2,0 0,38.176 z m 321.59,0 47.72,0 0,-38.176 47.72,0 0,-34.77 -47.72,0 0,-79.422 c 0,-23.906 8.36,-31.363 28.13,-31.363 7.41,0 17.54,1.981 21.26,2.723 l 0,-33.864 c -3.92,-1.175 -21.26,-5.671 -39.27,-5.671 -35.11,0 -57.84,18.875 -57.84,50.238 l 0,97.359 -24.2,0 0,34.77 24.2,0 0,38.176 z m -760.82,-72.946 -23.18,0 0,34.77 65.47,0 1.31,-23.328 0.68,0 c 3.16,4.925 18.7,27.418 54.78,27.418 45.25,0 68.99,-31.887 68.99,-71.082 l 0,-76.516 20.45,0 0,-34.77 -87.6,0 0,34.77 19.43,0 0,68.281 c 0,24.864 -13.78,38.41 -36.43,38.41 -20.45,0 -36.18,-11.48 -36.18,-38.41 l 0,-68.281 20.46,0 0,-34.77 -87.62,0 0,34.77 19.44,0 0,108.738 z m -232.42,0 -23.18,0 0,34.77 65.47,0 1.31,-23.328 0.68,0 c 3.16,4.925 18.7,27.418 54.78,27.418 45.24,0 68.99,-31.887 68.99,-71.082 l 0,-76.516 20.45,0 0,-34.77 -87.6,0 0,34.77 19.43,0 0,68.281 c 0,24.864 -13.79,38.41 -36.44,38.41 -20.44,0 -36.17,-11.48 -36.17,-38.41 l 0,-68.281 20.45,0 0,-34.77 -87.61,0 0,34.77 19.44,0 0,108.738 z m 1225.23,-32.383 c 0,24.54 -13.98,38.52 -36.13,38.52 -21.82,0 -34.43,-14.316 -36.48,-38.52 l 72.61,0 z m -72.27,-32.722 c 1.37,-28.297 23.18,-45.68 56.59,-45.68 29.41,0 47.45,8.129 55.23,11.277 l 0,-36.839 c -7.27,-2.911 -27.15,-11.25 -65.8,-11.25 -68.86,0 -97.83,42.953 -97.83,92.375 0,55.562 33.75,94.082 89.65,94.082 61.36,0 86.24,-46.36 86.24,-103.965 l -124.08,0 z m -1249.01,32.722 c 0,24.54 -13.98,38.52 -36.13,38.52 -21.82,0 -34.43,-14.316 -36.48,-38.52 l 72.61,0 z m -72.27,-32.722 c 1.37,-28.297 23.18,-45.68 56.59,-45.68 29.41,0 47.45,8.129 55.23,11.277 l 0,-36.839 c -7.27,-2.911 -27.15,-11.25 -65.8,-11.25 -68.86,0 -97.83,42.953 -97.83,92.375 0,55.562 33.75,94.082 89.65,94.082 61.36,0 86.24,-46.36 86.24,-103.965 l -124.08,0 z m -153.66,48.398 c 24.88,0 41.13,14.309 41.13,38.512 0,21.969 -14.19,38.531 -41.81,38.531 l -30.45,0 0,-77.043 31.13,0 z m -80.895,77.043 -23.524,0 0,34.77 109.549,0 c 57.61,0 87.69,-30.254 87.69,-73.301 0,-51.113 -40.31,-73.277 -87.69,-73.277 l -36.26,0 0,-57.266 23.52,0 0,-34.77 -96.809,0 0,34.77 23.524,0 0,169.074"
         style="fill:#263e7e;fill-opacity:1;fill-rule:nonzero;stroke:none"
         id="path3373"
         inkscape:connector-curvature="0" /></g></g></svg>